<svg xmlns="http://www.w3.org/2000/svg" width="16" height="16" viewBox="0 -960 960 960">
    <path
        d="M483.077-232q-103.25 0-175.625-72.339-72.375-72.34-72.375-175.539 0-103.199 72.375-175.661Q379.827-728 483.077-728q67.308 0 122.038 32.384 54.731 32.385 87.808 85.077V-728h32v169.231H555.692v-32h111q-28.231-47.846-76.384-76.539Q542.154-696 483.077-696q-90 0-153 63t-63 153q0 90 63 153t153 63q84 0 144-55.5t69-136.5h32.462Q721.077-360.154 651-296.077T483.077-232Z"
        fill="#9DA0A8"
        stroke="#9DA0A8"
        stroke-width="0.2"
    />
</svg>
