<svg xmlns="http://www.w3.org/2000/svg" width="16" height="16" viewBox="0 -960 960 960">
    <path
        d="M538.769-88H420.461q-17.788 0-30.547-11.077-12.76-11.077-15.76-29l-10.231-80.615q-10.154-5.769-29.203-15.608-19.048-9.84-30.105-19.084l-74.077 32.461q-16.692 9-34 1.5-17.307-7.5-25.769-23.192l-60.308-108.539Q102-356.846 106.115-373t17.808-27.154l59.615-46.385q.231-7.772-.923-17.846-1.154-10.074-1.154-17.846 0-6.484 1.154-15.692t.923-19.538l-59.615-44.385q-14.693-10.462-17.808-27.268-3.115-16.807 5.346-32.732l59.308-104Q181-739.77 196.538-748.654q15.539-8.885 32.231.115l71.077 30.693q13.923-9.923 32.269-19.923 18.346-10 32.039-17.539l10-78.615q2-17.923 15.057-29Q402.268-874 420.461-874h118.308q18.194 0 31.636 11.077 13.441 11.077 15.441 29l9.231 80.384q15 9.077 31.154 17.539 16.154 8.461 30.846 19.154l73.154-30.693q16.692-9 33.615-1.884 16.923 7.115 25.385 22.807l60.308 104.77q8.461 15.692 5.346 32.615-3.115 16.923-17.808 27.385l-64.692 48.692q1.308 8.385 1.692 17.731.385 9.346.385 15.423 0 5.308-.769 14.654-.77 9.346.461 20.038l61.154 46.154Q850.77-388.923 854-372.385q3.231 16.539-5.23 32.231l-61.308 109.308q-8.462 15.692-24.885 21.923-16.423 6.231-33.115-2.769l-77.385-32.462q-13.692 9.693-28.115 18.423-14.423 8.731-27.885 15.27l-10.231 82.384q-3 17.923-16.144 29Q556.557-88 538.769-88Zm-64.846-263q54.446 0 92.723-38.277T604.923-482q0-54.446-38.277-92.723T473.923-613q-53.077 0-92.039 38.277-38.961 38.277-38.961 92.723t38.961 92.723Q420.846-351 473.923-351Zm-.118-70q-24.882 0-42.882-18.118-18-18.117-18-43 0-24.882 18.118-42.882 18.117-18 43-18 24.882 0 42.882 18.118 18 18.117 18 43 0 24.882-18.118 42.882-18.117 18-43 18ZM480-481Zm-41 323h80.08L532-265.308q29.231-8 55.336-23.046 26.106-15.047 52.356-40.184L735.462-287l41.769-66-84.539-65.769q5-17.077 7.116-32.153 2.115-15.077 2.115-30.808 0-14.501-1.615-27.078-1.616-12.577-5.616-33.884L779.769-609 740-675l-99.077 40.769q-19.154-20.923-50.624-39.141-31.469-18.218-58.068-24.32L521-804h-83.769l-9.462 104.538q-32.231 7.462-59.577 23.308-27.346 15.846-52.423 41.923L221-675l-41.769 66L261-543.231q-4 18.462-6 34.231-2 15.769-2 27.193 0 10.807 2 26.307 2 15.5 5.231 36.731l-81 65.769L221-287l95-40q27.538 24.769 54.385 39.615 26.846 14.847 56.615 22.847L439-158Z"
        fill="#9DA0A8"
        stroke="#9DA0A8"
        stroke-width="0.2"
    />
</svg>
