<svg xmlns="http://www.w3.org/2000/svg" viewBox="0 0 40 40">
    <path
        d="M12.43 33.47l-2.94-.59A4.69 4.69 0 017.78 32l-2.86-5.2a2.47 2.47 0 01-.39-1.2l-.47-7.85a4.15 4.15 0 01.72-2.6l1.87-2.55a1.66 1.66 0 011.12-.6l1.4-.16a.8.8 0 01.89.94l-.51 2.93a.26.26 0 010 .15l-1.06 8a.21.21 0 000 .11l1.65 4.19a.56.56 0 00.05.08l4.23 4.31a.17.17 0 00.1.06l3.76 1a.22.22 0 01-.06.44h-.09l-2.54-.59a5.33 5.33 0 00-.75-.3z"
        fill="#808285" />
    <path
        d="M32.48 22.75l1.78-1.18c0-.84 0-1.07-.06-1.91l-1.86-1.07c-.16-.61-.24-.95-.4-1.56L33 15.19c-.38-.75-.5-.95-.88-1.7L30 13.33l-1-1.22.17-2.11-1.54-1.17-2 .77-1.45-.6-.76-2-1.88-.37-1.46 1.52h-1.61l-1.55-1.42-1.85.49-.63 2c-.55.29-.86.46-1.43.74l-2-.66c-.63.55-.82.69-1.46 1.24l.33 2.12c-.38.5-.58.79-1 1.29l-2.13.29c-.35.77-.44 1-.77 1.76l1.2 1.76-.31 1.58-1.78 1.22c0 .84 0 1.08.06 1.92L7 23.55c.16.6.24.95.4 1.55l-1.1 1.84c.38.75.5 1 .88 1.7l2.14.16c.4.47.63.75 1 1.22l-.19 2.13 1.54 1.16 2-.78 1.46.65.76 2 1.89.36L19.27 34h1.61l1.55 1.47 1.85-.49.63-2.05c.55-.29.86-.46 1.43-.74l2 .66c.63-.55.82-.69 1.46-1.24l-.33-2.12c.38-.5.58-.79 1-1.29l2.13-.29c.35-.77.44-1 .77-1.75l-1.2-1.76zm-15 9.2a11.09 11.09 0 1113-8.76A11.09 11.09 0 0117.52 32z"
        fill="#bcbec0" />
    <circle cx="19.68" cy="21.07" r="11.07" fill="none" stroke="#bcbec0" stroke-miterlimit="10" stroke-width="4" />
    <path
        d="M21.28 5.22l-1 1.67a1.34 1.34 0 00-.16.39l-.37 1.37a1.58 1.58 0 00.8 1.81l1.1.56a1.56 1.56 0 001.8-.25L25 9.38a1.29 1.29 0 00.16-.17l1-1.31a1.57 1.57 0 00-.31-2.25l-.69-.5a1.48 1.48 0 00-.54-.25L23 4.49a1.59 1.59 0 00-1.72.73zm6.99 2.56l-1.81 1.28a1.88 1.88 0 00-.74 1.14l-.29 1.43a1.84 1.84 0 00.8 1.93l.8.52a1.87 1.87 0 001.79.14l2.4-1.11a1.78 1.78 0 00.92-.93l.52-1.18a1.86 1.86 0 00-.46-2.14l-.66-.58A1.91 1.91 0 0031 8l-1-.41a1.84 1.84 0 00-1.73.19zm3.35 5.87l-1.71 1a1.67 1.67 0 00-.58.54l-1.11 1.65a1.73 1.73 0 00-.11 1.73l.23.47a1.74 1.74 0 001.83 1l2-.31a1.77 1.77 0 001-.55l1.49-1.63a1.73 1.73 0 00.26-2l-.34-.65a1.51 1.51 0 00-.36-.47l-.54-.5a1.74 1.74 0 00-2.06-.28zm1.85 7.13l-2.34.55a2.65 2.65 0 00-1.15.6l-1.82 1.62a1.49 1.49 0 00-.49 1.3v.2A1.46 1.46 0 0029 26.32l2.39.33a3 3 0 002.17-.51l1.84-1.25a1.48 1.48 0 00.56-1.71l-.1-.28a5.89 5.89 0 00-.59-1.21l-.18-.28a1.49 1.49 0 00-1.62-.63zm-19.79-5.24l-.52 1.3a.89.89 0 01-.86.56l-3.62-.17a.88.88 0 01-.84-.82l-.27-3.57a.88.88 0 01.78-.94l1.53-.19a.81.81 0 01.64.2l2.93 2.65a.86.86 0 01.23.98z"
        fill="#808285" />
    <path
        d="M4.42 15.9l2.23-3.25A1.66 1.66 0 017.8 12l.56-.06a.88.88 0 01.92.56l1.82 3.22L5.65 19a.89.89 0 01-1.41-.48l-.17-.7a2.45 2.45 0 01.35-1.92z"
        fill="#808285" />
    <path
        d="M21.92 15l-.28 1.28A.65.65 0 0022 17a4.69 4.69 0 012.2 2.9h-9a4.68 4.68 0 012.24-2.9.62.62 0 00.33-.68L17.49 15a.63.63 0 00-.89-.43 7.2 7.2 0 00.07 13.09.64.64 0 00.89-.44l.27-1.29a.63.63 0 00-.34-.69 4.67 4.67 0 01-2.34-3h9a4.69 4.69 0 01-2.29 2.94.63.63 0 00-.33.68l.27 1.28a.64.64 0 00.9.43 7.2 7.2 0 00.07-13 .64.64 0 00-.85.43z"
        fill="#939598" />
</svg>
